<svg aria-hidden="true" style="position:absolute;width:0;height:0;overflow:hidden" xmlns="http://www.w3.org/2000/svg">
    <defs>
        <symbol id="icon-Vector" viewBox="0 0 10 16">
            <path d="M8.5 0h-7C.673 0 0 .673 0 1.5v13c0 .827.673 1.5 1.5 1.5h7c.827 0 1.5-.673 1.5-1.5v-13C10 .673 9.327 0 8.5 0zm-7 1h7a.5.5 0 0 1 .5.5V12H1V1.5a.5.5 0 0 1 .5-.5zm7 14h-7a.5.5 0 0 1-.5-.5V13h8v1.5a.5.5 0 0 1-.5.5z"/>
        </symbol>
        <symbol id="icon-envelope-hover" viewBox="0 0 21 16">
            <path d="M19.333 0H2C.897 0 0 .897 0 2v12c0 1.103.897 2 2 2h17.333c1.103 0 2-.897 2-2V2c0-1.103-.897-2-2-2zm0 1.333c.091 0 .177.019.255.052l-8.922 7.733-8.922-7.733A.661.661 0 0 1 2 1.333h17.333zm0 13.334H2A.667.667 0 0 1 1.333 14V2.794l8.896 7.71a.665.665 0 0 0 .874 0l8.896-7.71V14a.667.667 0 0 1-.667.667z"/>
        </symbol>
    </defs>
</svg>