<svg aria-hidden="true" style="position:absolute;width:0;height:0;overflow:hidden" xmlns="http://www.w3.org/2000/svg">
    <defs>
        <symbol id="icon-facebook" viewBox="0 0 44 44">
            <path d="M44 22c0 6.075-2.462 11.575-6.444 15.556S28.075 44 22 44s-11.575-2.462-15.556-6.444C2.463 33.575 0 28.075 0 22S2.462 10.425 6.444 6.444 15.925 0 22 0c6.075 0 11.575 2.462 15.556 6.444S44 15.925 44 22z"/>
            <path d="M25.331 15.321h1.826v-3.18a23.64 23.64 0 0 0-2.66-.141c-2.632 0-4.436 1.656-4.436 4.699V19.5h-2.905v3.555h2.905V32h3.562v-8.944h2.788l.442-3.555h-3.231v-2.449c.001-1.028.277-1.731 1.709-1.731z"/>
        </symbol>
        <symbol id="icon-instagram" viewBox="0 0 44 44">
            <path  d="M44 22c0 6.075-2.462 11.575-6.444 15.556S28.075 44 22 44s-11.575-2.462-15.556-6.444C2.463 33.575 0 28.075 0 22S2.462 10.425 6.444 6.444 15.925 0 22 0c6.075 0 11.575 2.462 15.556 6.444S44 15.925 44 22z"/>
            <path d="M31.98 17.88c-.047-1.063-.219-1.793-.465-2.426a4.88 4.88 0 0 0-1.157-1.774 4.923 4.923 0 0 0-1.77-1.153c-.637-.246-1.363-.418-2.426-.465-1.071-.051-1.41-.063-4.126-.063s-3.055.012-4.122.059c-1.063.047-1.793.219-2.426.465a4.88 4.88 0 0 0-1.774 1.157 4.923 4.923 0 0 0-1.153 1.77c-.246.637-.418 1.363-.465 2.426-.051 1.071-.063 1.41-.063 4.126s.012 3.055.059 4.122c.047 1.063.219 1.793.465 2.426a4.93 4.93 0 0 0 1.156 1.774c.5.508 1.106.903 1.77 1.153.637.246 1.363.418 2.426.465 1.066.047 1.406.059 4.122.059s3.055-.012 4.122-.059c1.063-.047 1.793-.219 2.426-.465a5.118 5.118 0 0 0 2.927-2.926c.246-.637.418-1.364.465-2.426.047-1.067.059-1.407.059-4.122s-.004-3.055-.051-4.122zm-1.801 8.166c-.043.977-.207 1.504-.344 1.856a3.32 3.32 0 0 1-1.899 1.899c-.352.137-.883.301-1.856.344-1.055.047-1.371.059-4.04.059s-2.989-.012-4.04-.059c-.977-.043-1.504-.207-1.856-.344a3.078 3.078 0 0 1-1.149-.746 3.102 3.102 0 0 1-.746-1.149c-.137-.352-.301-.883-.344-1.856-.047-1.055-.059-1.371-.059-4.04s.012-2.989.059-4.04c.043-.977.207-1.504.344-1.856a3.04 3.04 0 0 1 .75-1.149 3.102 3.102 0 0 1 1.149-.746c.352-.137.883-.301 1.856-.344 1.055-.047 1.371-.059 4.04-.059 2.672 0 2.989.012 4.04.059.977.043 1.504.207 1.856.344.434.16.828.414 1.149.746.332.324.586.715.746 1.149.137.352.301.883.344 1.856.047 1.055.059 1.371.059 4.04s-.012 2.981-.059 4.036z"/>
            <path d="M22.037 16.864a5.139 5.139 0 1 0 .002 10.274 5.139 5.139 0 0 0-.002-10.274zm0 8.471a3.333 3.333 0 1 1 0-6.667 3.333 3.333 0 0 1 0 6.667zM28.577 16.661a1.2 1.2 0 1 1-2.399 0 1.2 1.2 0 0 1 2.399 0z"/>
        </symbol>
        <symbol id="icon-linkedin" viewBox="0 0 44 44">
            <path d="M44 22c0 6.075-2.462 11.575-6.444 15.556S28.075 44 22 44s-11.575-2.462-15.556-6.444C2.463 33.575 0 28.075 0 22S2.462 10.425 6.444 6.444 15.925 0 22 0c6.075 0 11.575 2.462 15.556 6.444S44 15.925 44 22z"/>
            <path d="M31.995 32v-.001H32v-7.335c0-3.588-.772-6.353-4.967-6.353-2.017 0-3.37 1.107-3.922 2.156h-.058v-1.821h-3.977v13.352h4.142v-6.612c0-1.741.33-3.424 2.486-3.424 2.124 0 2.156 1.987 2.156 3.536v6.501h4.138zM12.33 18.647h4.147v13.352H12.33V18.647zM14.402 12C13.076 12 12 13.076 12 14.402s1.076 2.424 2.402 2.424 2.402-1.098 2.402-2.424S15.727 12 14.402 12z"/>
        </symbol>
        <symbol id="icon-twitter" viewBox="0 0 44 44">
            <path d="M44 22c0 6.075-2.462 11.575-6.444 15.556S28.075 44 22 44s-11.575-2.462-15.556-6.444C2.463 33.575 0 28.075 0 22S2.462 10.425 6.444 6.444 15.925 0 22 0c6.075 0 11.575 2.462 15.556 6.444S44 15.925 44 22z"/>
            <path d="M32 15.799a8.555 8.555 0 0 1-2.363.647 4.076 4.076 0 0 0 1.804-2.266 8.19 8.19 0 0 1-2.6.992 4.1 4.1 0 0 0-7.093 2.804c0 .325.027.637.095.935-3.409-.166-6.425-1.8-8.451-4.289a4.107 4.107 0 0 0 1.26 5.481 4.061 4.061 0 0 1-1.853-.505v.045a4.12 4.12 0 0 0 3.285 4.029 4.107 4.107 0 0 1-1.075.135c-.262 0-.527-.015-.776-.07.531 1.624 2.039 2.818 3.831 2.856a8.24 8.24 0 0 1-5.084 1.749 7.72 7.72 0 0 1-.981-.056 11.545 11.545 0 0 0 6.29 1.84c7.545 0 11.67-6.25 11.67-11.668 0-.181-.006-.356-.015-.53a8.176 8.176 0 0 0 2.055-2.129z"/>
        </symbol>
    </defs>
</svg>